<?xml version="1.0" standalone="no"?>
<!DOCTYPE svg PUBLIC "-//W3C//DTD SVG 20010904//EN"
 "http://www.w3.org/TR/2001/REC-SVG-20010904/DTD/svg10.dtd">
<svg version="1.0" xmlns="http://www.w3.org/2000/svg"
 width="700.000000pt" height="700.000000pt" viewBox="0 0 700.000000 700.000000"
 preserveAspectRatio="xMidYMid meet">
<metadata>
Created by potrace 1.11, written by Peter Selinger 2001-2013
</metadata>
<g transform="translate(0.000000,700.000000) scale(0.100000,-0.100000)"
fill="#000000" stroke="none">
<path d="M1905 6371 l-1590 -568 2 -40 c3 -69 473 -4147 481 -4171 5 -18 302
-186 1359 -772 l1353 -749 302 168 c472 262 1468 814 1953 1081 242 134 443
246 447 249 5 4 461 3920 491 4210 2 23 -50 43 -1578 588 -869 310 -1591 566
-1605 568 -16 3 -589 -197 -1615 -564z m1842 -1387 c492 -94 884 -494 969
-989 22 -125 15 -340 -15 -450 -116 -429 -480 -1025 -1024 -1675 -139 -166
-156 -183 -174 -168 -37 30 -319 377 -455 558 -498 665 -748 1182 -748 1544 0
176 59 404 146 562 52 96 161 240 231 305 194 181 450 300 708 329 90 11 264
3 362 -16z"/>
<path d="M3422 4550 c-340 -47 -600 -328 -619 -670 -8 -130 14 -236 74 -360
39 -81 59 -108 137 -186 100 -99 176 -145 306 -185 96 -30 280 -33 378 -6 318
86 532 365 534 692 0 120 -20 213 -68 312 -133 278 -440 444 -742 403z m223
-205 c95 -25 165 -65 236 -135 166 -164 205 -396 102 -610 -33 -69 -150 -188
-218 -222 -91 -46 -153 -61 -249 -61 -252 1 -459 170 -511 418 -18 88 -18 122
0 210 40 190 190 349 376 399 72 19 191 20 264 1z"/>
</g>
</svg>
